<?xml version="1.0" encoding="UTF-8" standalone="no"?>
<svg
   viewBox="0 0 576 512"
   fill="#a1adb8"
   version="1.1"
   id="svg59"
   sodipodi:docname="brc721.svg"
   inkscape:version="1.1.2 (0a00cf5339, 2022-02-04)"
   xmlns:inkscape="http://www.inkscape.org/namespaces/inkscape"
   xmlns:sodipodi="http://sodipodi.sourceforge.net/DTD/sodipodi-0.dtd"
   xmlns="http://www.w3.org/2000/svg"
   xmlns:svg="http://www.w3.org/2000/svg">
  <defs
     id="defs63" />
  <sodipodi:namedview
     id="namedview61"
     pagecolor="#ffffff"
     bordercolor="#666666"
     borderopacity="1.0"
     inkscape:pageshadow="2"
     inkscape:pageopacity="0.0"
     inkscape:pagecheckerboard="0"
     showgrid="false"
     inkscape:zoom="1.78125"
     inkscape:cx="175.15789"
     inkscape:cy="256"
     inkscape:window-width="1920"
     inkscape:window-height="1163"
     inkscape:window-x="0"
     inkscape:window-y="0"
     inkscape:window-maximized="1"
     inkscape:current-layer="svg59" />
  <!--! Font Awesome Free 6.4.2 by @fontawesome - https://fontawesome.com License - https://fontawesome.com/license/free (Icons: CC BY 4.0, Fonts: SIL OFL 1.1, Code: MIT License) Copyright 2023 Fonticons, Inc. -->
  <path
     d="M160 32c-35.3 0-64 28.7-64 64V320c0 35.3 28.7 64 64 64H512c35.3 0 64-28.7 64-64V96c0-35.3-28.7-64-64-64H160zM396 138.7l96 144c4.9 7.4 5.4 16.8 1.2 24.6S480.9 320 472 320H328 280 200c-9.2 0-17.6-5.3-21.6-13.6s-2.9-18.2 2.9-25.4l64-80c4.6-5.7 11.4-9 18.7-9s14.2 3.3 18.7 9l17.3 21.6 56-84C360.5 132 368 128 376 128s15.5 4 20 10.7zM192 128a32 32 0 1 1 64 0 32 32 0 1 1 -64 0zM48 120c0-13.3-10.7-24-24-24S0 106.7 0 120V344c0 75.1 60.9 136 136 136H456c13.3 0 24-10.7 24-24s-10.7-24-24-24H136c-48.6 0-88-39.4-88-88V120z"
     id="path57"
     style="fill:#dedc60;fill-opacity:1" />
</svg>
