<svg width="129" height="129" viewBox="0 0 129 129" fill="none" xmlns="http://www.w3.org/2000/svg">
<path d="M118.88 64.5002C118.88 94.5342 94.5328 118.882 64.4988 118.882C34.4647 118.882 10.1174 94.5342 10.1174 64.5002C10.1174 34.4662 34.4647 10.1188 64.4988 10.1188C94.5328 10.1188 118.88 34.4662 118.88 64.5002Z" fill="#D7FF5E" stroke="url(#paint0_linear_1502_1854)" stroke-width="5.43396"/>
<path fill-rule="evenodd" clip-rule="evenodd" d="M129 64.5C129 100.122 100.122 129 64.5 129C28.8776 129 0 100.122 0 64.5C0 28.8776 28.8776 0 64.5 0C100.122 0 129 28.8776 129 64.5ZM64.5 121.598C96.0346 121.598 121.598 96.0346 121.598 64.5C121.598 32.9654 96.0346 7.40164 64.5 7.40164C32.9654 7.40164 7.40164 32.9654 7.40164 64.5C7.40164 96.0346 32.9654 121.598 64.5 121.598Z" fill="url(#paint1_linear_1502_1854)"/>
<path fill-rule="evenodd" clip-rule="evenodd" d="M46.5234 32.0386C54.5122 32.0386 60.9884 38.0616 60.9884 45.4915V77.71C60.1423 77.7925 59.3396 77.8159 58.5789 77.7851V78.549H46.5247V67.3382H46.5528C46.9838 73.5723 52.155 78.5019 58.4876 78.5484H58.5779V77.7851C49.7032 77.4257 46.5235 69.6997 46.5234 62.4853V32.0386ZM46.5239 78.5502C46.5239 85.9801 52.547 92.0031 59.9768 92.0031L88.7133 92.0031C88.7133 84.5733 82.6902 78.5502 75.2604 78.5502H46.5239Z" fill="#25143B"/>
<defs>
<linearGradient id="paint0_linear_1502_1854" x1="88.1314" y1="115.466" x2="-6.66256" y2="-113.562" gradientUnits="userSpaceOnUse">
<stop stop-color="#D7FF5E"/>
<stop offset="1" stop-color="#EF9365"/>
</linearGradient>
<linearGradient id="paint1_linear_1502_1854" x1="44.5143" y1="-9.21761e-05" x2="111.739" y2="161.704" gradientUnits="userSpaceOnUse">
<stop stop-color="#D7FF5E"/>
<stop offset="0.1832" stop-color="#EF9365"/>
<stop offset="0.628" stop-color="#613D93"/>
<stop offset="1" stop-color="#25143B"/>
</linearGradient>
</defs>
</svg>
